<?xml version="1.0" encoding="utf-8"?>
<!-- Generator: Adobe Illustrator 24.0.0, SVG Export Plug-In . SVG Version: 6.00 Build 0)  -->
<svg version="1.1" id="ac36309e-8ec3-4395-a5a5-5184c9b5e099"
	 xmlns="http://www.w3.org/2000/svg" xmlns:xlink="http://www.w3.org/1999/xlink" x="0px" y="0px" viewBox="0 0 50 50"
	 style="enable-background:new 0 0 50 50;" xml:space="preserve">
<style type="text/css">
	.st0{fill:#363E4C;}
	.st1{fill:#84C301;}
</style>
<title>fav</title>
<path fill="white" d="M46.5,12.7v24.6c0,0.4-0.3,0.8-0.8,0.8h-6.1v-11c0-0.1-0.1-0.2-0.2-0.2c-0.1,0-0.1,0-0.1,0.1l-9.2,11.1H27
	c-0.4,0-0.8-0.3-0.8-0.8V27.1c0-0.1-0.1-0.2-0.2-0.2c-0.1,0-0.1,0-0.1,0.1L17,38.1H8.4l21-26.1h2.2c0.4,0,0.8,0.3,0.8,0.8v11.7
	l11-12.4h2.4C46.2,11.9,46.5,12.3,46.5,12.7z"/>
<g>
	<path class="st1" d="M36.7,41.1v-1.5c-3.2,2.6-7.3,4.1-11.7,4.1c-3.5,0-6.7-1-9.5-2.6H6.7c4.5,5.1,11,8.3,18.3,8.3
		s13.8-3.2,18.3-8.3H36.7z"/>
	<path class="st1" d="M8.3,33.3c-1.3-2.5-2-5.3-2-8.3C6.3,14.7,14.7,6.3,25,6.3c5.5,0,10.4,2.4,13.8,6.2L42,8.9h1.3
		c-4.5-5.1-11-8.3-18.3-8.3C11.6,0.7,0.7,11.6,0.7,25c0,4.8,1.4,9.3,3.8,13.1L8.3,33.3z"/>
</g>
</svg>
